<svg width="432" height="352" viewBox="0 0 432 352" fill="none" xmlns="http://www.w3.org/2000/svg">
<g clip-path="url(#clip0_399_194)">
<path d="M188.039 19.3438H90.4893V110.394H188.039V19.3438Z" fill="#112B46"/>
<g style="mix-blend-mode:screen">
<path d="M188.039 19.3438H90.4893V28.9737H188.039V19.3438Z" fill="#1D262D"/>
</g>
<path d="M100.279 36.8125H98.7891V38.3025H100.279V36.8125Z" fill="#F9FBFC"/>
<path d="M100.279 91.3537H98.7891V88.3237H100.279V91.3537ZM100.279 83.7737H98.7891V80.7437H100.279V83.7737ZM100.279 76.1938H98.7891V73.1638H100.279V76.1938ZM100.279 68.6138H98.7891V65.5838H100.279V68.6138ZM100.279 61.0337H98.7891V58.0037H100.279V61.0337ZM100.279 53.4538H98.7891V50.4237H100.279V53.4538ZM100.279 45.8737H98.7891V42.8438H100.279V45.8737Z" fill="#F9FBFC"/>
<path d="M100.279 95.9062H98.7891V97.3962H100.279V95.9062Z" fill="#F9FBFC"/>
<path d="M289.359 0H209.029V49.52H289.359V0Z" fill="#FF1442"/>
<path d="M332.35 95.9297H286.6V128.53H332.35V95.9297Z" fill="#606BF1"/>
<path d="M118.398 2H51.8125V46.5331H118.398V2Z" fill="#FB5B5B"/>
<path d="M260.08 113.146C259.97 114.276 258.42 126.116 246.24 126.116C233.46 126.116 235.6 113.466 235.6 113.466L235.58 113.386C236.83 113.126 238.17 113.036 239.59 113.196V107.206L254.1 99.0859H254.63V113.066C254.63 113.066 256.93 112.796 260.08 113.146V113.146Z" fill="url(#paint0_radial_399_194)"/>
<path d="M253.04 72.3349C255.1 74.4249 256.65 77.1249 257.4 80.4149C258.79 86.5649 257.48 93.0649 255.7 98.9849C255.4 99.9949 255.05 101.025 254.42 101.875C253.97 102.485 253.4 102.985 252.83 103.485C250.25 105.735 247.67 107.985 245.09 110.235C243.34 111.765 232.6 113.035 230.55 111.565C222.65 105.915 221.13 89.5449 222.71 81.1749C225.33 67.2949 243.18 62.3249 253.03 72.3249L253.04 72.3349Z" fill="url(#paint1_radial_399_194)"/>
<path d="M248.599 90.1066C248.709 88.7666 250.079 87.3066 251.459 88.1766C252.889 89.0766 252.549 91.4466 251.959 92.7566C251.499 93.7766 249.939 94.9066 248.889 93.9466C248.009 93.1466 249.379 92.2066 249.419 91.4766C249.459 90.8166 248.149 90.3466 248.689 89.6466" fill="#F7B094"/>
<path d="M248.85 96.2903C250.29 96.7203 252.73 95.6203 253.35 93.6203C253.97 91.6103 253.9 89.3203 253.9 89.3203C253.9 89.3203 254.63 91.1403 254.25 94.0603C253.87 96.9803 252.85 99.7603 250.56 99.8003C248.27 99.8403 248.85 96.2903 248.85 96.2903V96.2903Z" fill="#F7B094"/>
<path d="M247.08 94.2083C247.08 94.2083 246.98 94.2483 246.92 94.2583C246.03 94.3783 245.67 93.3083 245.54 92.6283C245.23 91.0483 245.28 89.4583 245.22 87.8583C245.21 87.4583 245.24 86.9583 245.08 86.5883C244.58 85.4383 243.24 84.6983 242.84 83.5083C242.37 82.1283 243.7 80.7583 243.17 79.2483C242.36 76.9383 239.39 76.4083 237.24 76.4283C234.02 76.4683 230.88 77.0683 227.7 77.5583C224.35 78.0783 220.06 78.5683 217.1 76.4483C213.54 73.8883 212.05 67.2283 214.71 63.5783C216.16 61.5883 218.91 60.5283 221.32 60.4783C223.87 60.4183 226.03 61.9383 228.37 62.7083C230.24 63.3183 232.04 61.5383 233.78 61.1883C235.97 60.7483 236.9 63.1383 238.84 63.2083C240.72 63.2683 242.57 61.7983 244.4 61.4683C248.05 60.7983 247.84 64.4683 250.28 65.7183C251.8 66.4983 253.77 66.0283 255.31 66.8183C256.48 67.4183 256.64 68.4783 256.9 69.6683C257.12 70.6983 257.13 71.8983 257.47 72.8783C257.78 73.7583 258.52 74.3183 259.1 75.0083C259.73 75.7583 260.14 76.6483 260.46 77.5883C261.17 79.6883 261.33 81.9483 261.13 84.1483C260.8 87.8383 259.62 91.4683 258.39 94.9383C257.59 97.1883 257.29 99.5383 256.07 101.668C255.74 102.238 254.27 103.918 253.73 102.668C253.61 102.398 253.63 102.098 253.65 101.808C253.81 99.4883 255.97 84.5183 250.31 86.3183C249.12 86.6983 248.32 87.6883 247.88 88.8183C247.35 90.1683 247.31 91.5283 247.38 92.9583C247.38 93.1583 247.4 93.3683 247.38 93.5683C247.37 93.8283 247.3 94.0983 247.08 94.2083V94.2083Z" fill="#3D3D7A"/>
<path d="M239.6 111.817C246.05 110.777 250.3 105.688 250.3 105.688C250.3 105.688 248.56 114.268 239.21 114.728L239.6 111.817V111.817Z" fill="#F7B094"/>
<path d="M257.78 318.938H251.81C250.91 318.938 250.18 318.208 250.18 317.308V228.778H259.41V317.308C259.41 318.208 258.68 318.938 257.78 318.938V318.938Z" fill="#0A2033"/>
<path d="M273.84 237.758H235.73C232.25 237.758 229.42 234.928 229.42 231.448V230.058H280.16V231.448C280.16 234.928 277.33 237.758 273.85 237.758H273.84Z" fill="#30475E"/>
<path d="M257.78 330.594H251.81C250.91 330.594 250.18 329.864 250.18 328.964V308.454H259.41V328.964C259.41 329.864 258.68 330.594 257.78 330.594V330.594Z" fill="#0A2033"/>
<path d="M206.91 325.189C206.91 328.169 209.33 330.589 212.31 330.589C215.29 330.589 217.71 328.169 217.71 325.189C217.71 322.209 215.29 319.789 212.31 319.789C209.33 319.789 206.91 322.209 206.91 325.189Z" fill="#0A2033"/>
<path d="M291.87 325.189C291.87 328.169 294.29 330.589 297.27 330.589C300.25 330.589 302.67 328.169 302.67 325.189C302.67 322.209 300.25 319.789 297.27 319.789C294.29 319.789 291.87 322.209 291.87 325.189Z" fill="#0A2033"/>
<path d="M245.51 317.789H264.07V301.569H245.51V317.789Z" fill="#30475E"/>
<path d="M302.67 321.609H206.91V319.729C206.91 316.559 209.49 313.979 212.66 313.979H296.92C300.09 313.979 302.67 316.559 302.67 319.729V321.609V321.609Z" fill="#FBD15B"/>
<path d="M254.79 239.578H251.59V300.128H254.79V239.578Z" fill="#30475E"/>
<path d="M291.04 164.627C288.83 164.557 287.03 166.387 287.15 168.597C287.78 179.587 285.45 206.397 275.22 215.547C262.7 226.727 227.23 225.207 227.23 225.207C227.23 225.207 221.37 232.397 233.09 233.997C244.81 235.597 277.83 234.527 285.81 227.077C293.54 219.857 298.13 200.947 294.67 168.037C294.47 166.147 292.93 164.687 291.03 164.627H291.04Z" fill="#FBD15B"/>
<path d="M224.581 300.133L228.801 309.753L215.871 315.423L211.641 305.773L224.581 300.133Z" fill="url(#paint2_radial_399_194)"/>
<path d="M285.53 193.219C284.73 194.819 227.3 193.249 221.88 193.749C221.88 193.749 186.73 210.529 181.68 226.229C181.17 227.809 181.03 229.899 181.18 232.399C182.59 254.509 207.77 307.459 207.77 307.459L211.64 305.769L224.58 300.129L226.42 299.329C226.42 299.329 206.45 239.819 210.44 236.619C214.43 233.419 259.7 225.439 275.4 221.189C291.12 216.919 285.53 193.229 285.53 193.229V193.219Z" fill="#56548C"/>
<path d="M175.3 302.6L176.31 317.05H162.2L161.2 302.57L175.3 302.6Z" fill="url(#paint3_radial_399_194)"/>
<path d="M221.59 193.26L221.08 193.48C221.08 193.48 162.24 201.74 152.65 218.24C146.42 228.98 158.48 307.43 158.48 307.43L179.3 307.48C179.3 307.48 176.19 242.13 177.22 238.49C178.39 234.34 180.38 232.83 181.18 232.4C181.02 229.91 181.16 227.81 181.68 226.23C186.73 210.52 221.88 193.75 221.88 193.75C221.77 193.67 221.67 193.49 221.59 193.25V193.26Z" fill="#3D3D7A"/>
<path d="M278.43 138.893L274.48 139.433C274.48 139.433 273.52 150.073 271.17 160.713L222.01 179.373L221.34 182.933C221.13 182.913 220.92 182.903 220.73 182.883C220.75 183.613 220.75 184.333 220.78 185.003C220.89 189.113 221.16 192.063 221.59 193.243C221.67 193.483 221.77 193.663 221.88 193.743C223.22 194.833 240.6 192.723 259.4 199.623C275.7 205.613 284.84 212.143 285.26 211.273C290.38 200.623 281.06 158.823 278.42 138.883L278.43 138.893Z" fill="#FF1442"/>
<path d="M273.3 163.273C271.99 169.573 268.6 182.093 261.96 183.773C253.28 185.973 236.51 185.863 220.79 185.023C220.76 184.353 220.76 183.633 220.74 182.903C220.93 182.923 221.14 182.933 221.35 182.953L222.02 179.393L271.18 160.733C273.53 150.093 274.49 139.453 274.49 139.453C274.49 139.453 274.49 139.513 274.51 139.633C274.61 141.283 275.28 153.993 273.31 163.293L273.3 163.273Z" fill="#F4675D"/>
<path d="M224.021 123.18C223.141 124.78 221.881 141.87 221.191 158.84L211.141 149.46C215.411 141.2 224.021 123.18 224.021 123.18V123.18Z" fill="#FF1442"/>
<path d="M218.001 171.241C209.521 172.711 201.721 173.971 201.721 173.971L201.701 174.391C192.261 166.851 177.891 145.491 177.891 145.491C177.891 145.491 182.191 140.331 183.261 138.971C183.421 138.761 206.841 154.881 208.041 154.741C208.341 154.711 209.541 152.601 211.141 149.471L221.191 158.851C221.031 162.891 220.901 166.921 220.821 170.741C219.881 170.921 218.931 171.081 217.991 171.251L218.001 171.241Z" fill="#F7B094"/>
<path d="M201.72 173.967L201.51 180.967H175.95C175.95 180.967 178.49 170.977 185.41 170.977C192.33 170.977 195 174.637 195 174.637L201.73 173.967H201.72Z" fill="url(#paint4_radial_399_194)"/>
<path d="M183.07 138.806L183.26 138.966C182.19 140.326 177.89 145.486 177.89 145.486L175.22 143.596C175.22 143.596 172.28 145.386 168.86 143.516C165.3 141.586 167.5 136.966 167.69 136.416C167 136.606 162.73 140.066 162.06 139.696C161.39 139.326 160.89 138.116 165.67 133.396C170.43 128.686 176.92 134.736 177.11 134.736L183.07 138.796V138.806Z" fill="#F7B094"/>
<path d="M169.421 142.718C169.421 142.718 168.391 144.648 170.221 145.488C172.051 146.328 175.611 146.928 177.141 146.788C178.671 146.648 179.891 144.498 179.891 144.498L175.261 140.148H171.551L169.421 142.718V142.718Z" fill="#F7B094"/>
<path d="M169.151 143.659C169.421 142.709 172.061 143.219 173.691 143.259C174.891 143.289 175.551 142.969 175.921 142.059C176.291 141.139 174.551 139.689 174.201 140.139C173.861 140.599 174.831 141.239 174.861 141.849C174.891 142.459 173.141 142.659 171.801 142.659C170.461 142.659 168.141 143.009 168.141 143.009L169.161 143.659H169.151Z" fill="#E8987C"/>
<path d="M268.68 169.792L243.64 160.922C241.82 164.322 239.87 166.882 237.94 167.392C235.02 168.162 227.95 169.482 220.83 170.732C219.89 170.912 218.94 171.072 218 171.242C209.52 172.712 201.72 173.972 201.72 173.972L201.7 174.392V174.662L201.51 180.972V182.572C201.51 182.572 210.01 182.142 220.73 182.892C235.73 183.962 255.08 184.602 261.49 181.582C264.49 180.162 266.89 175.492 268.78 169.742C268.75 169.762 268.72 169.772 268.68 169.792V169.792Z" fill="url(#paint5_radial_399_194)"/>
<path d="M243.64 160.922L268.68 169.792L267.54 173.132L242.76 162.502L243.64 160.922Z" fill="#F7B094"/>
<path d="M243.64 160.918C241.82 164.318 239.87 166.878 237.94 167.388C235.02 168.158 227.95 169.478 220.83 170.728C220.91 166.908 221.04 162.888 221.2 158.838C221.89 141.868 223.15 124.778 224.03 123.178C225.47 120.508 229.4 114.708 235.6 113.388L235.62 113.468C235.62 113.468 233.48 126.118 246.26 126.118C259.04 126.118 259.98 114.278 260.1 113.148C266.36 113.848 275.97 116.978 277.29 129.568C277.56 132.058 277.95 135.258 278.44 138.878L274.49 139.418C274.49 139.418 272.89 157.148 268.79 169.728C268.76 169.748 268.73 169.758 268.69 169.778L243.65 160.908L243.64 160.918Z" fill="#FF1442"/>
<g style="mix-blend-mode:screen">
<path d="M243.38 158.606L253.38 134.406L246.01 159.586L243.38 158.606Z" fill="#6D4B35"/>
</g>
<path d="M260.08 113.148H254.63C254.63 113.148 246.88 121.658 241.89 121.658C236.9 121.658 239.59 113.188 239.59 113.188H237.16C230.17 113.188 224.3 118.438 223.51 125.378C223.42 126.178 223.34 126.928 223.27 127.608C222.74 132.758 243.6 136.508 243.6 136.508L254.34 135.908L260.86 123.178L262.16 117.968L260.08 113.148V113.148Z" fill="#FF1442"/>
<path d="M194.34 326.493C194.83 329.093 196.63 330.943 199.23 330.463L233.93 323.993C234.81 323.833 235.39 322.983 235.22 322.103L234.65 319.023C234.65 319.023 198.15 325.413 194.32 326.473L194.34 326.493Z" fill="#F1F2F2"/>
<path d="M204.66 317.752C205.02 317.442 205.37 317.122 205.73 316.812C206.43 316.192 207.11 315.582 207.77 314.992C208.12 314.682 208.47 314.372 208.79 314.072C209.42 313.502 210.02 312.972 210.56 312.492C210.94 312.142 211.3 311.812 211.63 311.522C212.22 310.992 212.71 310.552 213.05 310.252C213.34 309.992 213.78 309.972 214.08 310.232C215.51 311.432 220.12 314.172 228.47 309.002C228.87 308.752 229.39 308.882 229.61 309.302L234.66 319.012C234.66 319.012 198.16 325.402 194.33 326.462C195.59 325.672 200.25 321.642 204.67 317.742L204.66 317.752Z" fill="#3D3D7A"/>
<path d="M139.69 326.145C139.75 328.795 141.24 330.905 143.89 330.845L179.18 329.985C180.07 329.965 180.78 329.225 180.76 328.325L180.68 325.195C180.68 325.195 143.63 325.685 139.68 326.125V326.145H139.69Z" fill="#F1F2F2"/>
<path d="M151.27 319.167C151.68 318.917 152.07 318.667 152.48 318.407C153.27 317.907 154.04 317.417 154.78 316.937C155.17 316.687 155.57 316.437 155.93 316.197C156.65 315.737 157.32 315.307 157.92 314.917C158.36 314.637 158.76 314.367 159.13 314.127C159.8 313.697 160.35 313.347 160.73 313.097C161.06 312.887 161.49 312.937 161.75 313.237C162.97 314.647 167.08 318.087 176.15 314.317C176.58 314.137 177.08 314.347 177.22 314.787L180.66 325.177C180.66 325.177 143.61 325.667 139.66 326.107C141.03 325.527 146.27 322.297 151.26 319.147L151.27 319.167Z" fill="#3D3D7A"/>
<path d="M114.58 182.565L95.7402 132.305H149.39L168.24 182.565H114.58Z" fill="#ABB5BA"/>
<path d="M171.551 182.565H168.241L149.391 132.305L152.401 132.435L169.841 177.935L171.551 182.565Z" fill="#8495A0"/>
<path d="M170.51 182.568H205.96L205.86 179.398H169.78" fill="#8495A0"/>
<path d="M321.56 192.164H313.02V332.394H321.56V192.164Z" fill="#8495A0"/>
<path d="M275.229 192.164H266.689V332.394H275.229V192.164Z" fill="#ABB5BA"/>
<path d="M126.79 192.164H118.25V332.394H126.79V192.164Z" fill="#8495A0"/>
<path d="M80.4599 192.164H71.9199V332.394H80.4599V192.164Z" fill="#ABB5BA"/>
<path d="M330.1 182.57H63.7398C61.4479 182.57 59.5898 184.428 59.5898 186.72V188.54C59.5898 190.832 61.4479 192.69 63.7398 192.69H330.1C332.392 192.69 334.25 190.832 334.25 188.54V186.72C334.25 184.428 332.392 182.57 330.1 182.57Z" fill="#141B56"/>
<path d="M104.7 137.586L105.61 140.036H116.3L115.38 137.586H104.7Z" fill="#8495A0"/>
<path d="M211.14 149.461L210.38 150.951L221.19 162.121V158.841L211.14 149.461Z" fill="#E8987C"/>
<path d="M431.92 330.594H0V340.454H431.92V330.594Z" fill="#A5B7C6"/>
<path d="M363.44 257.44C361.72 265.77 362.24 279.95 351.23 282.19C348.26 282.79 345.4 280.74 343.68 278.38C341.42 275.3 340.88 268.77 340.92 265.04C340.95 262.08 341.96 258.78 342.28 255.8C342.63 252.58 342.92 249.35 343.29 246.13C344.64 234.52 350.71 224.79 360.97 219C361.76 222.81 363.57 226.04 365.17 229.69C365.9 231.36 366.55 233.12 367.03 234.87C367.87 237.97 366.85 241.09 366.1 244.06C364.99 248.44 364.36 253.01 363.44 257.44V257.44Z" fill="url(#paint6_linear_399_194)"/>
<path d="M349.36 282.471C349.44 281.771 349.52 281.071 349.62 280.381C350.94 280.381 352.31 279.631 353.41 279.061C355.33 278.071 356.88 276.641 358.38 275.121C358.46 275.041 358.32 274.911 358.24 274.981C356.74 276.241 355.18 277.461 353.4 278.291C352.4 278.751 350.95 279.511 349.72 279.661C349.84 278.831 349.96 277.991 350.1 277.161C351.47 276.991 352.73 276.091 353.89 275.401C355.86 274.231 357.56 272.721 359.32 271.261C359.34 271.241 359.32 271.211 359.3 271.231C356.61 273.181 353.61 275.961 350.21 276.571C350.39 275.531 350.58 274.491 350.8 273.461C350.81 273.411 350.82 273.351 350.83 273.301C354.77 272.301 357.43 269.221 360.45 266.721C360.5 266.681 360.45 266.601 360.39 266.641C357.42 268.951 354.63 271.581 350.96 272.701C351.28 271.231 351.61 269.761 351.94 268.291C355.5 266.981 358.35 264.891 360.84 261.981C360.88 261.931 360.81 261.861 360.77 261.911C358.19 264.591 355.36 266.131 352.09 267.661C352.42 266.211 352.75 264.751 353.06 263.301C354.6 262.541 356.22 262.081 357.65 261.081C359.05 260.101 360.31 258.921 361.22 257.461C361.27 257.381 361.15 257.311 361.1 257.381C359.11 260.251 356.1 261.141 353.2 262.641C353.48 261.281 353.75 259.921 353.98 258.551C357.22 256.771 360.73 255.121 362.57 251.701C362.59 251.671 362.54 251.631 362.52 251.671C360.58 254.811 357.18 256.161 354.1 257.871C354.14 257.631 354.18 257.381 354.22 257.141C354.42 255.871 354.6 254.601 354.79 253.321C356.65 252.581 358.42 251.521 360.1 250.431C361.29 249.661 362.56 248.891 363.33 247.681C363.38 247.601 363.27 247.531 363.21 247.601C361.47 250.091 357.67 251.521 354.86 252.771C355.04 251.481 355.22 250.201 355.41 248.911C358.53 247.021 362.19 245.981 364.11 242.581C364.17 242.481 364.02 242.391 363.96 242.481C361.97 245.581 358.48 246.541 355.5 248.301C355.61 247.501 355.73 246.711 355.85 245.911C359.21 244.671 363.13 241.861 364.9 238.821C365 238.651 364.76 238.501 364.65 238.661C362.84 241.331 359.21 244.231 355.95 245.291C356.15 244.001 356.36 242.711 356.59 241.431C356.61 241.391 356.63 241.361 356.64 241.321C358.15 240.881 359.64 239.811 360.95 239.011C362.52 238.041 364.02 236.911 365 235.321C365.11 235.141 364.82 234.981 364.72 235.161C363.23 237.831 359.68 239.611 356.74 240.631C356.83 240.161 356.91 239.691 357 239.231C357.14 238.531 357.28 237.831 357.42 237.131C358.62 236.301 360.15 235.901 361.36 235.031C362.41 234.271 363.33 233.351 364.22 232.421C364.31 232.331 364.18 232.181 364.08 232.271C362.86 233.421 361.61 234.511 360.13 235.311C359.3 235.751 358.36 236.011 357.55 236.491C357.78 235.351 358.02 234.201 358.24 233.061C358.25 233.061 358.27 233.061 358.28 233.061C358.29 233.061 358.31 233.061 358.32 233.061C358.4 233.081 358.47 233.051 358.52 233.001C360.15 232.591 361.41 231.181 362.5 229.981C362.53 229.951 362.49 229.911 362.46 229.941C361.31 231.011 360 232.191 358.45 232.641C358.45 232.641 358.45 232.641 358.43 232.641C358.39 232.641 358.35 232.631 358.31 232.621C358.49 231.691 358.66 230.761 358.81 229.821C358.93 229.801 359.03 229.701 359 229.581C359.87 229.001 360.65 228.261 361.39 227.531C361.45 227.481 361.37 227.391 361.31 227.441C360.54 228.101 359.78 228.651 358.92 229.131C359.23 227.201 359.46 225.261 359.57 223.291C359.58 223.111 359.31 223.111 359.29 223.291C359.12 225.181 358.84 227.051 358.52 228.911C357.62 227.731 356.61 226.511 356.06 225.151C356.03 225.081 355.92 225.111 355.94 225.181C356.21 226.021 356.67 226.761 357.13 227.501C357.54 228.171 357.87 228.951 358.4 229.541C358.22 230.541 358.02 231.541 357.82 232.531C356.72 232.351 355.72 232.151 354.81 231.351C353.7 230.381 353.07 229.061 352.96 227.591C352.95 227.411 352.66 227.411 352.68 227.591C352.8 228.951 353.35 230.231 354.28 231.251C355.26 232.321 356.41 232.661 357.73 232.931C357.49 234.081 357.24 235.231 356.99 236.371C355.99 235.771 355.07 234.991 354.17 234.281C352.72 233.131 351.87 231.741 350.61 230.441C350.48 230.311 350.28 230.501 350.4 230.631C351.58 231.881 352.37 233.241 353.72 234.361C354.68 235.171 355.75 236.191 356.9 236.781C356.89 236.841 356.87 236.901 356.86 236.961C356.85 236.971 356.83 236.981 356.82 236.991C356.73 237.081 356.74 237.181 356.79 237.251C356.55 238.351 356.31 239.451 356.07 240.551C356.06 240.621 356.04 240.691 356.03 240.761C353.47 239.591 349.64 237.551 349.3 234.581C349.27 234.301 348.85 234.381 348.91 234.671C349.67 238.031 353.36 239.521 355.91 241.361C355.66 242.611 355.43 243.851 355.22 245.111C353.57 244.541 351.99 243.841 350.6 242.731C349.34 241.731 347.55 240.511 346.98 238.961C346.96 238.911 346.89 238.941 346.91 238.991C347.44 240.541 349.04 241.601 350.21 242.661C351.69 244.001 353.21 245.141 355.11 245.671C355.1 245.721 355.09 245.781 355.11 245.841C354.98 246.631 354.85 247.431 354.73 248.221C351.62 247.981 347.27 245.621 345.68 243.271C345.68 243.261 345.66 243.271 345.66 243.281C346.74 245.081 348.38 246.131 350.23 247.041C351.61 247.721 353.1 248.521 354.66 248.641C354.44 250.111 354.22 251.591 354 253.061C352.65 252.561 351.22 252.321 349.88 251.781C347.89 250.991 346.38 249.561 345.21 247.801C345.14 247.691 344.96 247.781 345.03 247.891C347.18 251.311 350.28 252.321 353.91 253.601C353.73 254.811 353.54 256.021 353.34 257.221C350.37 256.651 346.53 254.841 345.02 252.261C344.91 252.071 344.61 252.231 344.72 252.421C345.67 254.071 347.31 255.121 348.97 255.961C350.17 256.571 351.83 257.571 353.26 257.681C353.26 257.721 353.25 257.761 353.24 257.801C352.95 259.541 352.6 261.261 352.23 262.981C348.91 262.151 346.77 259.691 344.35 257.391C344.18 257.231 343.92 257.471 344.09 257.641C346.55 260.061 348.71 262.601 352.12 263.491C351.81 264.891 351.49 266.291 351.15 267.681C348.32 266.891 345.53 264.881 343.7 262.581C343.57 262.421 343.34 262.641 343.47 262.801C345.37 265.301 348.11 267.191 351.03 268.221C350.66 269.711 350.28 271.211 349.9 272.701C347 272.261 344.76 270.441 342.97 268.141C342.93 268.091 342.83 268.161 342.87 268.211C344.46 270.421 346.86 272.971 349.75 273.241C349.63 273.721 349.5 274.191 349.38 274.671C349.31 274.961 349.23 275.251 349.15 275.541C346.96 274.901 344.93 274.111 343.12 272.631C343.07 272.591 343.01 272.671 343.06 272.711C344.78 274.261 346.83 275.301 349.03 275.971C348.79 276.861 348.53 277.791 348.27 278.721C347.73 278.471 347.2 278.191 346.61 278.011C345.52 277.681 344.82 276.991 343.87 276.421C343.78 276.371 343.69 276.491 343.77 276.551C344.6 277.091 345.19 277.791 346.14 278.151C346.84 278.411 347.51 278.751 348.19 279.051C347.19 282.771 346.31 286.721 346.79 290.291C346.9 291.081 348.22 291.291 348.43 290.451C349.06 287.861 349.03 285.101 349.32 282.451L349.36 282.471Z" fill="#747DED"/>
<path d="M328.58 255.06C330.54 263.33 336.99 275.97 327.96 282.65C325.53 284.45 322.06 283.8 319.5 282.39C316.15 280.55 312.91 274.86 311.37 271.46C310.15 268.77 309.67 265.35 308.71 262.51C307.67 259.44 306.56 256.39 305.54 253.31C301.87 242.21 303.26 230.84 310.11 221.25C312.44 224.37 315.44 226.53 318.43 229.17C319.79 230.37 321.13 231.69 322.3 233.08C324.37 235.53 324.77 238.8 325.34 241.8C326.18 246.24 327.54 250.65 328.58 255.06V255.06Z" fill="url(#paint7_linear_399_194)"/>
<path d="M326.391 283.688C326.171 283.018 325.95 282.348 325.74 281.678C326.93 281.118 327.861 279.868 328.621 278.878C329.941 277.168 330.741 275.218 331.471 273.208C331.511 273.098 331.331 273.038 331.281 273.138C330.451 274.918 329.561 276.678 328.291 278.188C327.581 279.028 326.581 280.328 325.531 280.978C325.281 280.178 325.051 279.368 324.821 278.558C325.991 277.828 326.751 276.478 327.511 275.368C328.801 273.478 329.7 271.388 330.68 269.318C330.69 269.298 330.661 269.278 330.641 269.298C329.031 272.208 327.481 275.988 324.661 277.978C324.381 276.958 324.121 275.938 323.881 274.908C323.871 274.858 323.861 274.798 323.841 274.748C326.991 272.188 328.101 268.258 329.781 264.728C329.811 264.668 329.721 264.618 329.691 264.678C327.971 268.018 326.551 271.588 323.701 274.148C323.371 272.678 323.051 271.208 322.731 269.738C325.411 267.048 327.101 263.948 328.131 260.268C328.151 260.208 328.061 260.168 328.041 260.238C326.841 263.758 324.911 266.348 322.591 269.118C322.281 267.658 321.961 266.208 321.621 264.758C322.701 263.418 323.971 262.318 324.841 260.818C325.701 259.338 326.35 257.738 326.55 256.028C326.56 255.938 326.431 255.918 326.411 256.008C325.811 259.448 323.461 261.528 321.471 264.118C321.151 262.768 320.821 261.418 320.451 260.078C322.631 257.098 325.121 254.118 325.341 250.248C325.341 250.208 325.291 250.198 325.281 250.248C324.841 253.908 322.331 256.568 320.261 259.418C320.191 259.178 320.131 258.938 320.061 258.698C319.701 257.458 319.33 256.228 318.96 254.998C320.33 253.538 321.49 251.838 322.55 250.138C323.3 248.938 324.131 247.708 324.321 246.278C324.331 246.188 324.2 246.168 324.18 246.258C323.66 249.248 320.82 252.148 318.8 254.468C318.42 253.228 318.041 251.988 317.671 250.738C319.701 247.718 322.581 245.218 322.891 241.328C322.891 241.208 322.73 241.188 322.71 241.308C322.22 244.958 319.451 247.298 317.501 250.158C317.271 249.388 317.041 248.618 316.811 247.848C319.341 245.308 321.7 241.098 322.02 237.598C322.04 237.408 321.751 237.368 321.721 237.558C321.211 240.738 319.131 244.908 316.631 247.238C316.271 245.988 315.91 244.728 315.58 243.468C315.58 243.428 315.58 243.388 315.58 243.348C316.76 242.308 317.671 240.708 318.511 239.428C319.531 237.888 320.411 236.228 320.621 234.368C320.641 234.158 320.32 234.138 320.3 234.338C320.07 237.388 317.611 240.508 315.381 242.668C315.261 242.208 315.141 241.748 315.031 241.278C314.861 240.588 314.691 239.888 314.531 239.198C315.271 237.938 316.49 236.938 317.21 235.628C317.84 234.498 318.28 233.278 318.71 232.048C318.75 231.928 318.57 231.858 318.52 231.978C317.9 233.528 317.231 235.058 316.221 236.398C315.661 237.148 314.911 237.778 314.381 238.558C314.111 237.418 313.841 236.288 313.561 235.158C313.571 235.158 313.581 235.138 313.591 235.128C313.601 235.128 313.621 235.128 313.631 235.118C313.711 235.098 313.761 235.038 313.781 234.978C315.091 233.918 315.631 232.108 316.121 230.558C316.131 230.518 316.081 230.498 316.061 230.538C315.461 231.988 314.781 233.608 313.571 234.678C313.571 234.678 313.56 234.678 313.55 234.678C313.51 234.688 313.471 234.698 313.441 234.708C313.211 233.788 312.971 232.868 312.721 231.958C312.821 231.888 312.871 231.758 312.791 231.658C313.331 230.768 313.731 229.758 314.091 228.788C314.121 228.718 314.011 228.668 313.981 228.738C313.561 229.658 313.11 230.478 312.52 231.278C311.98 229.398 311.381 227.538 310.651 225.708C310.581 225.538 310.331 225.658 310.391 225.818C311.031 227.598 311.571 229.418 312.061 231.238C310.741 230.548 309.321 229.868 308.251 228.868C308.191 228.818 308.111 228.888 308.161 228.948C308.761 229.598 309.491 230.068 310.221 230.548C310.881 230.978 311.501 231.548 312.231 231.868C312.491 232.848 312.73 233.838 312.96 234.828C311.89 235.128 310.89 235.368 309.74 235.028C308.33 234.618 307.201 233.688 306.481 232.398C306.391 232.238 306.131 232.358 306.231 232.518C306.921 233.698 307.951 234.638 309.221 235.158C310.561 235.708 311.751 235.538 313.061 235.228C313.331 236.368 313.591 237.518 313.841 238.658C312.691 238.538 311.521 238.218 310.401 237.948C308.601 237.508 307.24 236.618 305.55 235.968C305.38 235.908 305.271 236.158 305.441 236.228C307.041 236.868 308.33 237.758 310.02 238.218C311.24 238.548 312.63 239.018 313.93 239.078C313.94 239.138 313.961 239.198 313.971 239.258C313.971 239.278 313.961 239.288 313.951 239.308C313.911 239.428 313.951 239.508 314.041 239.548C314.281 240.648 314.531 241.748 314.781 242.838C314.801 242.908 314.81 242.978 314.83 243.038C312.01 243.058 307.681 242.828 306.121 240.278C305.971 240.038 305.62 240.278 305.8 240.518C307.91 243.248 311.891 243.038 314.971 243.628C315.271 244.858 315.591 246.088 315.921 247.318C314.181 247.498 312.461 247.528 310.731 247.108C309.161 246.728 307.03 246.388 305.86 245.218C305.82 245.178 305.771 245.238 305.811 245.278C306.941 246.458 308.841 246.748 310.351 247.208C312.261 247.798 314.111 248.188 316.061 247.868C316.071 247.928 316.091 247.978 316.131 248.018C316.351 248.788 316.571 249.568 316.791 250.338C313.871 251.438 308.93 251.128 306.49 249.668C306.48 249.668 306.47 249.678 306.49 249.688C308.23 250.858 310.161 251.118 312.221 251.168C313.761 251.198 315.451 251.298 316.921 250.748C317.341 252.178 317.761 253.608 318.191 255.028C316.751 255.138 315.361 255.528 313.921 255.608C311.781 255.728 309.811 255.068 308.011 253.978C307.901 253.908 307.781 254.068 307.891 254.138C311.291 256.338 314.521 255.938 318.351 255.568C318.701 256.738 319.03 257.918 319.36 259.088C316.43 259.828 312.181 259.808 309.731 258.098C309.551 257.968 309.34 258.238 309.52 258.368C311.08 259.468 313.001 259.728 314.871 259.788C316.221 259.828 318.141 260.048 319.481 259.538C319.491 259.578 319.501 259.618 319.511 259.658C319.981 261.358 320.391 263.068 320.781 264.778C317.421 265.418 314.441 264.098 311.281 263.028C311.061 262.958 310.931 263.288 311.151 263.368C314.401 264.528 317.431 265.908 320.901 265.278C321.211 266.678 321.511 268.078 321.791 269.488C318.891 269.968 315.511 269.328 312.881 268.008C312.691 267.918 312.581 268.208 312.761 268.308C315.541 269.768 318.82 270.328 321.9 270.028C322.2 271.538 322.481 273.048 322.761 274.558C319.941 275.378 317.15 274.678 314.55 273.348C314.49 273.318 314.43 273.418 314.49 273.458C316.86 274.788 320.121 276.088 322.851 275.118C322.941 275.598 323.031 276.088 323.121 276.568C323.171 276.858 323.231 277.158 323.281 277.458C321.021 277.798 318.851 277.938 316.591 277.368C316.531 277.348 316.511 277.448 316.571 277.468C318.781 278.148 321.08 278.218 323.36 277.908C323.52 278.818 323.671 279.768 323.841 280.718C323.241 280.718 322.651 280.688 322.031 280.778C320.901 280.938 319.971 280.618 318.871 280.498C318.771 280.488 318.731 280.638 318.841 280.658C319.821 280.798 320.651 281.188 321.661 281.108C322.411 281.048 323.15 281.078 323.9 281.068C324.57 284.858 325.431 288.818 327.381 291.858C327.811 292.528 329.1 292.158 328.93 291.308C328.41 288.698 327.21 286.198 326.36 283.678L326.391 283.688Z" fill="#747DED"/>
<path d="M347.67 248.643C348.14 259.153 353.06 276.013 340.52 282.043C337.14 283.663 333.08 282.073 330.3 279.763C326.66 276.753 324.03 269.083 322.95 264.593C322.09 261.033 322.3 256.773 321.79 253.093C321.23 249.123 320.6 245.153 320.07 241.183C318.18 226.843 322.5 213.333 333.05 203.273C335.16 207.603 338.31 210.923 341.33 214.833C342.71 216.613 344.03 218.523 345.13 220.483C347.08 223.943 346.81 228.003 346.8 231.793C346.8 237.393 347.42 243.063 347.67 248.653V248.643Z" fill="url(#paint8_linear_399_194)"/>
<path d="M338.37 282.953C338.25 282.093 338.14 281.223 338.04 280.363C339.62 279.963 341.04 278.643 342.19 277.623C344.19 275.853 345.62 273.673 346.96 271.383C347.03 271.263 346.83 271.143 346.75 271.253C345.33 273.223 343.83 275.153 341.94 276.703C340.89 277.563 339.37 278.913 337.94 279.463C337.83 278.423 337.73 277.393 337.64 276.353C339.23 275.733 340.47 274.273 341.65 273.093C343.66 271.093 345.24 268.763 346.9 266.473C346.92 266.443 346.88 266.413 346.86 266.443C344.23 269.603 341.47 273.843 337.58 275.603C337.48 274.303 337.4 272.993 337.34 271.693C337.34 271.623 337.34 271.553 337.34 271.493C341.76 269.103 344.02 264.593 346.88 260.683C346.93 260.623 346.84 260.533 346.79 260.603C343.93 264.273 341.38 268.273 337.31 270.723C337.24 268.863 337.2 266.993 337.15 265.133C341.03 262.473 343.81 259.113 345.91 254.863C345.95 254.793 345.84 254.733 345.8 254.803C343.52 258.803 340.58 261.513 337.13 264.333C337.08 262.493 337.04 260.643 336.97 258.803C338.59 257.423 340.39 256.383 341.8 254.753C343.19 253.153 344.34 251.363 344.98 249.333C345.01 249.223 344.85 249.173 344.81 249.283C343.29 253.323 339.95 255.303 336.92 257.993C336.85 256.273 336.75 254.563 336.62 252.843C339.96 249.723 343.68 246.673 344.85 242.023C344.86 241.973 344.79 241.953 344.78 242.003C343.4 246.353 339.74 249.003 336.55 251.993C336.52 251.683 336.5 251.383 336.48 251.073C336.33 249.493 336.17 247.903 336 246.323C338.01 244.863 339.81 243.063 341.49 241.253C342.68 239.963 343.97 238.663 344.54 236.963C344.58 236.853 344.42 236.793 344.38 236.903C343.05 240.413 338.93 243.293 335.93 245.633C335.76 244.033 335.59 242.443 335.42 240.843C338.59 237.633 342.67 235.273 343.94 230.613C343.98 230.473 343.77 230.413 343.73 230.543C342.29 234.863 338.38 237.073 335.35 240.093C335.25 239.103 335.14 238.113 335.05 237.123C338.71 234.623 342.55 230.053 343.76 225.863C343.83 225.633 343.49 225.523 343.41 225.743C342.05 229.493 338.57 234.073 334.98 236.333C334.83 234.723 334.69 233.123 334.57 231.513C334.59 231.463 334.6 231.413 334.6 231.363C336.28 230.373 337.75 228.643 339.07 227.283C340.66 225.643 342.12 223.833 342.81 221.623C342.89 221.383 342.49 221.273 342.43 221.523C341.45 225.173 337.73 228.393 334.52 230.513C334.48 229.923 334.44 229.333 334.41 228.743C334.36 227.863 334.32 226.983 334.28 226.093C335.47 224.733 337.18 223.793 338.36 222.373C339.39 221.143 340.21 219.763 341.01 218.373C341.09 218.233 340.89 218.103 340.8 218.243C339.69 219.983 338.52 221.683 336.98 223.083C336.12 223.863 335.06 224.453 334.25 225.283C334.19 223.843 334.12 222.403 334.04 220.953C334.06 220.953 334.07 220.933 334.09 220.933C334.11 220.933 334.13 220.933 334.14 220.933C334.24 220.933 334.32 220.873 334.36 220.803C336.2 219.813 337.27 217.743 338.22 215.973C338.24 215.933 338.18 215.893 338.16 215.933C337.1 217.563 335.89 219.373 334.17 220.393C334.17 220.393 334.16 220.393 334.15 220.393C334.1 220.393 334.05 220.393 334 220.403C333.93 219.233 333.85 218.063 333.76 216.893C333.9 216.833 333.99 216.683 333.92 216.543C334.78 215.583 335.5 214.453 336.17 213.363C336.22 213.283 336.1 213.203 336.05 213.283C335.33 214.313 334.58 215.193 333.69 216.033C333.47 213.623 333.17 211.223 332.7 208.833C332.66 208.613 332.33 208.693 332.36 208.913C332.73 211.233 332.97 213.553 333.14 215.893C331.7 214.743 330.13 213.593 329.05 212.133C328.99 212.053 328.87 212.133 328.92 212.213C329.5 213.143 330.28 213.883 331.06 214.643C331.76 215.323 332.39 216.153 333.2 216.713C333.29 217.963 333.35 219.223 333.41 220.483C332.04 220.603 330.77 220.663 329.45 219.983C327.83 219.153 326.67 217.763 326.09 216.033C326.02 215.823 325.68 215.913 325.75 216.123C326.31 217.723 327.35 219.093 328.78 220.033C330.28 221.013 331.76 221.073 333.43 221.003C333.49 222.453 333.54 223.903 333.59 225.363C332.21 224.953 330.87 224.293 329.57 223.703C327.48 222.753 326.04 221.353 324.13 220.173C323.94 220.053 323.75 220.343 323.94 220.463C325.73 221.613 327.1 222.993 329.05 223.933C330.45 224.613 332.04 225.513 333.6 225.873C333.6 225.953 333.6 226.023 333.6 226.103C333.59 226.123 333.57 226.133 333.56 226.153C333.48 226.283 333.52 226.403 333.61 226.473C333.65 227.863 333.7 229.253 333.75 230.643C333.75 230.733 333.75 230.813 333.76 230.903C330.33 230.273 325.12 228.993 323.81 225.523C323.69 225.193 323.2 225.413 323.37 225.743C325.3 229.553 330.19 230.213 333.8 231.643C333.88 233.213 333.98 234.783 334.1 236.343C331.94 236.163 329.84 235.793 327.84 234.893C326.02 234.073 323.51 233.163 322.35 231.463C322.31 231.413 322.24 231.463 322.27 231.523C323.37 233.223 325.62 234.013 327.34 234.923C329.52 236.083 331.69 236.983 334.13 237.053C334.13 237.123 334.14 237.193 334.18 237.253C334.26 238.243 334.35 239.233 334.45 240.223C330.64 240.883 324.71 239.363 322.08 237.023C322.07 237.013 322.05 237.023 322.06 237.043C323.91 238.873 326.19 239.633 328.68 240.163C330.54 240.563 332.58 241.073 334.49 240.743C334.67 242.573 334.86 244.413 335.04 246.243C333.27 246.053 331.48 246.193 329.71 245.953C327.09 245.603 324.83 244.353 322.9 242.593C322.78 242.483 322.6 242.643 322.72 242.763C326.34 246.223 330.36 246.483 335.11 246.923C335.26 248.423 335.4 249.933 335.52 251.443C331.78 251.663 326.62 250.653 324.04 248.013C323.85 247.823 323.54 248.103 323.73 248.293C325.37 249.993 327.65 250.743 329.91 251.253C331.54 251.613 333.83 252.323 335.58 252.013C335.58 252.063 335.58 252.113 335.59 252.163C335.76 254.333 335.88 256.513 335.95 258.683C331.72 258.683 328.4 256.393 324.8 254.363C324.55 254.223 324.31 254.593 324.56 254.743C328.24 256.903 331.6 259.293 335.97 259.323C336.03 261.093 336.06 262.873 336.08 264.643C332.45 264.553 328.48 262.993 325.59 260.783C325.39 260.623 325.18 260.963 325.38 261.123C328.42 263.543 332.28 264.983 336.09 265.333C336.1 267.233 336.1 269.143 336.09 271.043C332.47 271.393 329.24 269.893 326.39 267.673C326.32 267.623 326.23 267.733 326.3 267.793C328.88 269.963 332.53 272.293 336.08 271.743C336.08 272.353 336.08 272.963 336.08 273.563C336.08 273.933 336.08 274.303 336.07 274.683C333.25 274.573 330.57 274.243 327.96 273.023C327.89 272.993 327.84 273.103 327.91 273.133C330.44 274.463 333.22 275.093 336.06 275.243C336.04 276.393 336.01 277.573 335.99 278.773C335.26 278.633 334.55 278.463 333.78 278.423C332.37 278.363 331.32 277.743 330.01 277.353C329.89 277.313 329.81 277.493 329.93 277.533C331.09 277.933 332.01 278.593 333.25 278.733C334.17 278.833 335.07 279.043 335.98 279.193C335.91 283.963 336.05 288.973 337.71 293.113C338.08 294.033 339.74 293.883 339.73 292.803C339.7 289.503 338.82 286.203 338.38 282.933L338.37 282.953Z" fill="#747DED"/>
<path d="M354.59 286.891L354.13 295.431L353.4 308.731L352.21 330.591H322.62L321.43 308.731L320.7 295.431L320.24 286.891H354.59Z" fill="#95A8B5"/>
<path d="M354.13 295.43L354.03 297.14L353.94 298.91L353.4 308.73H321.43L320.89 298.91L320.8 297.14L320.7 295.43H354.13Z" fill="#A5B7C6"/>
<path d="M354.03 297.141L353.94 298.911H320.89L320.8 297.141H354.03Z" fill="#95A8B5"/>
<path d="M168 90.1674C165.672 90.7594 164.232 90.1934 162.94 88.2534L153.752 75.5414L152.424 73.7814L141.694 88.2954C140.468 90.0414 139.182 90.8014 136.894 90.1834L150.634 71.7394L137.842 55.0794C140.042 54.6514 141.562 54.8694 142.912 56.8394L152.442 69.7094L162.042 56.9094C163.272 55.1634 164.594 54.4994 166.802 55.1434L161.842 61.7194L155.122 70.4694C154.322 71.4694 154.432 72.1534 155.168 73.1194L168 90.1674ZM104.016 71.4314L105.14 65.9034C108.2 54.9634 120.74 50.4174 129.388 57.1774C134.442 61.1534 135.698 66.7774 135.448 73.0774H106.96C106.532 84.4174 114.694 91.2614 125.1 87.7694C128.75 86.5434 130.9 83.6854 131.976 80.1094C132.522 78.3174 133.426 78.0374 135.11 78.5494C134.25 83.0214 132.31 86.7574 128.21 89.0954C122.084 92.5954 113.34 91.4634 108.74 86.5994C106 83.7774 104.868 80.2014 104.36 76.3774C104.28 75.7454 104.12 75.1434 104 74.5374C104.011 73.5027 104.016 72.4681 104.016 71.4334V71.4314ZM107.012 70.6714H132.756C132.588 62.4714 127.482 56.6474 120.504 56.5974C112.844 56.5374 107.344 62.2234 107.012 70.6714V70.6714Z" fill="white"/>
<g clip-path="url(#clip1_399_194)">
<path d="M229.459 25.9318C229.459 23.195 232.944 20.6012 238.287 18.9927C237.054 13.6367 237.602 9.37554 240.016 8.01127C240.573 7.69126 241.224 7.53967 241.934 7.53967V9.41764C241.54 9.41764 241.224 9.49344 240.958 9.63659C239.794 10.2935 239.288 12.7946 239.682 16.0116C239.776 16.8032 239.931 17.6369 240.119 18.4874C241.797 18.0832 243.63 17.7716 245.556 17.5695C246.712 16.0116 247.911 14.5968 249.118 13.3588C246.327 10.8072 243.707 9.40921 241.926 9.40921V7.53125C244.28 7.53125 247.363 9.18184 250.479 12.0451C253.596 9.19868 256.679 7.56494 259.033 7.56494V9.4429C257.261 9.4429 254.632 10.8324 251.841 13.3673C253.04 14.6052 254.238 16.0116 255.377 17.5695C257.312 17.7716 259.145 18.0832 260.823 18.4959C261.02 17.6537 261.165 16.8368 261.268 16.0537C261.67 12.8367 261.174 10.3356 260.018 9.67028C259.761 9.51869 259.427 9.45133 259.033 9.45133V7.57336C259.753 7.57336 260.403 7.72495 260.968 8.04496C263.374 9.40921 263.914 13.662 262.672 19.0011C267.998 20.618 271.466 23.2034 271.466 25.9318C271.466 28.6689 267.981 31.2627 262.638 32.8711C263.871 38.2272 263.323 42.4882 260.908 43.8525C260.352 44.1725 259.701 44.3241 258.982 44.3241C256.627 44.3241 253.545 42.6735 250.428 39.8103C247.311 42.6568 244.229 44.2905 241.874 44.2905C241.155 44.2905 240.504 44.139 239.939 43.8188C237.533 42.4545 236.994 38.2017 238.235 32.8628C232.927 31.2542 229.459 28.6605 229.459 25.9318V25.9318ZM240.607 20.3149C240.924 21.4013 241.318 22.5212 241.763 23.6412C242.114 22.9677 242.482 22.2939 242.885 21.6201C243.279 20.9465 243.698 20.2896 244.118 19.6496C242.902 19.8264 241.729 20.0454 240.607 20.3149V20.3149ZM244.529 29.2836C245.197 30.4206 245.881 31.4985 246.592 32.5007C247.868 32.6101 249.161 32.669 250.462 32.669C251.755 32.669 253.048 32.6101 254.315 32.5089C255.026 31.5068 255.72 30.4374 256.388 29.3088C257.038 28.2057 257.629 27.0856 258.169 25.9573C257.638 24.8287 257.038 23.7002 256.396 22.5971C255.728 21.4602 255.043 20.3822 254.333 19.3801C253.057 19.2706 251.764 19.2117 250.462 19.2117C249.169 19.2117 247.876 19.2706 246.609 19.3717C245.899 20.3738 245.205 21.4433 244.537 22.5718C243.886 23.675 243.296 24.795 242.756 25.9236C243.296 27.0519 243.886 28.1805 244.529 29.2836V29.2836ZM241.763 28.1889C241.314 29.2864 240.919 30.4049 240.581 31.5405C241.703 31.8099 242.885 32.0374 244.109 32.2142C243.69 31.5659 243.27 30.9006 242.876 30.2183C242.482 29.5448 242.114 28.8625 241.763 28.1889ZM250.445 37.1745C251.242 36.3659 252.038 35.4648 252.826 34.4796C252.055 34.5133 251.267 34.5386 250.471 34.5386C249.666 34.5386 248.87 34.5218 248.091 34.4796C248.826 35.419 249.612 36.3186 250.445 37.1745V37.1745ZM256.816 32.2142C258.031 32.0374 259.205 31.8184 260.326 31.5489C260.009 30.4626 259.615 29.3425 259.17 28.2224C258.819 28.8962 258.451 29.57 258.049 30.2436C257.646 30.9174 257.235 31.5742 256.816 32.2142ZM250.488 14.6894C249.692 15.4978 248.895 16.3989 248.108 17.3842C248.878 17.3506 249.666 17.3253 250.462 17.3253C251.267 17.3253 252.064 17.3421 252.843 17.3842C252.108 16.4449 251.322 15.5453 250.488 14.6894V14.6894ZM256.824 19.6496C257.244 20.298 257.663 20.9633 258.057 21.6454C258.451 22.3191 258.819 22.9929 259.17 23.6665C259.62 22.569 260.014 21.4505 260.352 20.3149C259.23 20.0538 258.049 19.8264 256.824 19.6496V19.6496ZM264.573 30.1931C267.604 28.9215 269.565 27.2542 269.565 25.9318C269.565 24.6097 267.604 22.934 264.573 21.6708C263.837 21.3591 263.032 21.0812 262.201 20.8202C261.713 22.4707 261.071 24.1887 260.275 25.9488C261.063 27.7005 261.696 29.4099 262.176 31.0522C263.023 30.791 263.828 30.5048 264.573 30.1931ZM259.967 42.2272C261.131 41.5704 261.636 39.0693 261.242 35.8522C261.148 35.0607 260.994 34.2269 260.806 33.3763C259.127 33.7806 257.295 34.0923 255.369 34.2943C254.213 35.8522 253.014 37.267 251.807 38.5049C254.598 41.0567 257.218 42.4545 258.999 42.4545C259.384 42.4462 259.71 42.3704 259.967 42.2272V42.2272ZM239.657 35.8102C239.254 39.0271 239.751 41.5282 240.907 42.1935C241.164 42.3451 241.498 42.4125 241.892 42.4125C243.664 42.4125 246.293 41.023 249.084 38.4882C247.885 37.2502 246.686 35.8439 245.548 34.2858C243.612 34.0838 241.78 33.7721 240.102 33.3595C239.905 34.2101 239.751 35.027 239.657 35.8102ZM236.36 30.1931C237.097 30.5048 237.901 30.7827 238.732 31.0437C239.22 29.3932 239.862 27.6752 240.659 25.9151C239.871 24.1634 239.237 22.454 238.758 20.8117C237.91 21.0728 237.105 21.3591 236.352 21.6708C233.321 22.9422 231.36 24.6097 231.36 25.9318C231.368 27.2542 233.329 28.9299 236.36 30.1931V30.1931Z" fill="#61DAFB"/>
<path d="M250.471 29.7831C248.31 29.7831 246.558 28.0601 246.558 25.9344C246.558 23.809 248.31 22.0859 250.471 22.0859C252.632 22.0859 254.384 23.809 254.384 25.9344C254.384 28.0601 252.632 29.7831 250.471 29.7831V29.7831ZM269.558 50.9531H270.85V53.141H271.579V47.7324H269.759C269.139 47.7324 268.663 47.8712 268.331 48.1486C267.996 48.4258 267.829 48.8295 267.829 49.3594C267.829 49.6963 267.922 49.9897 268.108 50.2399C268.292 50.49 268.549 50.677 268.879 50.8007L267.587 53.0964V53.141H268.365L269.558 50.9531ZM270.85 50.3699H269.736C269.376 50.3699 269.09 50.2782 268.879 50.0949C268.665 49.9117 268.558 49.6665 268.558 49.3594C268.558 49.0252 268.66 48.7689 268.864 48.5905C269.065 48.4122 269.357 48.3218 269.74 48.3194H270.85V50.3699ZM265.223 53.2154C265.777 53.2154 266.227 53.0371 266.575 52.6804C266.922 52.3213 267.096 51.8421 267.096 51.2429V51.1165C267.096 50.7179 267.019 50.3625 266.866 50.0505C266.709 49.7358 266.493 49.4907 266.216 49.315C265.936 49.1366 265.634 49.0474 265.309 49.0474C264.778 49.0474 264.365 49.2195 264.071 49.5637C263.776 49.908 263.629 50.4008 263.629 51.0421V51.3282H266.397C266.387 51.7246 266.27 52.0453 266.046 52.2905C265.819 52.533 265.532 52.6545 265.185 52.6545C264.938 52.6545 264.729 52.6049 264.558 52.5059C264.387 52.4068 264.237 52.2756 264.108 52.1121L263.682 52.439C264.024 52.9565 264.538 53.2154 265.223 53.2154V53.2154ZM265.309 49.6121C265.591 49.6121 265.828 49.7136 266.02 49.9166C266.211 50.1174 266.329 50.3996 266.375 50.7636H264.327V50.7117C264.348 50.3625 264.443 50.0925 264.614 49.9017C264.786 49.7087 265.017 49.6121 265.309 49.6121V49.6121ZM260.294 53.141C260.334 53.0618 260.367 52.9207 260.392 52.7175C260.717 53.0493 261.105 53.2154 261.555 53.2154C261.958 53.2154 262.289 53.1039 262.549 52.881C262.805 52.6556 262.934 52.3709 262.934 52.0266C262.934 51.6082 262.773 51.2837 262.45 51.0534C262.126 50.8205 261.67 50.7041 261.083 50.7041H260.403V50.3885C260.403 50.1482 260.476 49.9575 260.622 49.8164C260.768 49.6728 260.984 49.601 261.268 49.601C261.518 49.601 261.726 49.6628 261.895 49.7867C262.064 49.9104 262.148 50.0603 262.148 50.2362H262.851C262.851 50.0356 262.779 49.8424 262.635 49.6566C262.489 49.4684 262.293 49.3199 262.046 49.2108C261.797 49.102 261.524 49.0474 261.227 49.0474C260.756 49.0474 260.387 49.1638 260.12 49.3967C259.853 49.627 259.715 49.9452 259.705 50.3512V52.2012C259.705 52.5703 259.657 52.8637 259.561 53.0815V53.141H260.294ZM261.453 52.6174C261.234 52.6174 261.026 52.5616 260.83 52.4501C260.634 52.3387 260.491 52.1938 260.403 52.0155V51.1909H260.951C261.807 51.1909 262.235 51.4372 262.235 51.93C262.235 52.1455 262.162 52.314 262.016 52.4353C261.87 52.5565 261.682 52.6174 261.453 52.6174V52.6174ZM256.97 52.6545C256.721 52.6545 256.503 52.5801 256.317 52.4315C256.13 52.2829 256.027 52.0972 256.007 51.8743H255.346C255.359 52.1046 255.439 52.3238 255.588 52.5319C255.736 52.7399 255.935 52.9058 256.185 53.0296C256.431 53.1535 256.693 53.2154 256.97 53.2154C257.526 53.2154 257.97 53.0333 258.3 52.6693C258.627 52.3027 258.791 51.8025 258.791 51.1685V51.0534C258.791 50.6621 258.718 50.3141 258.571 50.0096C258.425 49.705 258.217 49.4684 257.944 49.3001C257.67 49.1316 257.347 49.0474 256.974 49.0474C256.516 49.0474 256.135 49.1824 255.833 49.4524C255.529 49.7223 255.366 50.0727 255.346 50.5036H256.007C256.027 50.2435 256.128 50.0305 256.309 49.8646C256.488 49.6963 256.71 49.6121 256.974 49.6121C257.329 49.6121 257.605 49.7383 257.801 49.991C257.995 50.2411 258.092 50.6039 258.092 51.0794V51.2094C258.092 51.6724 257.995 52.0291 257.801 52.2792C257.607 52.5294 257.33 52.6545 256.97 52.6545V52.6545ZM253.612 48.1486V49.1218H252.849V49.653H253.612V52.1455C253.612 52.3065 253.578 52.4277 253.51 52.5095C253.442 52.5887 253.327 52.6285 253.163 52.6285C253.082 52.6285 252.972 52.6136 252.831 52.5838V53.141C253.014 53.1906 253.193 53.2154 253.367 53.2154C253.679 53.2154 253.915 53.1224 254.073 52.9367C254.232 52.7511 254.311 52.4872 254.311 52.1455V49.653H255.055V49.1218H254.311V48.1486H253.612ZM245.775 53.141H246.504L249.273 48.9732V53.141H250.002V47.7324H249.273L246.497 51.9189V47.7324H245.775V53.141ZM242.074 53.141C242.114 53.0618 242.147 52.9207 242.172 52.7175C242.497 53.0493 242.885 53.2154 243.335 53.2154C243.738 53.2154 244.07 53.1039 244.329 52.881C244.586 52.6556 244.714 52.3709 244.714 52.0266C244.714 51.6082 244.553 51.2837 244.231 51.0534C243.906 50.8205 243.45 50.7041 242.863 50.7041H242.183V50.3885C242.183 50.1482 242.257 49.9575 242.403 49.8164C242.549 49.6728 242.764 49.601 243.048 49.601C243.298 49.601 243.507 49.6628 243.675 49.7867C243.844 49.9104 243.928 50.0603 243.928 50.2362H244.631C244.631 50.0356 244.559 49.8424 244.416 49.6566C244.27 49.4684 244.073 49.3199 243.826 49.2108C243.577 49.102 243.304 49.0474 243.007 49.0474C242.536 49.0474 242.167 49.1638 241.9 49.3967C241.633 49.627 241.495 49.9452 241.485 50.3512V52.2012C241.485 52.5703 241.437 52.8637 241.341 53.0815V53.141H242.074ZM243.233 52.6174C243.014 52.6174 242.807 52.5616 242.61 52.4501C242.414 52.3387 242.272 52.1938 242.183 52.0155V51.1909H242.731C243.587 51.1909 244.015 51.4372 244.015 51.93C244.015 52.1455 243.942 52.314 243.796 52.4353C243.65 52.5565 243.463 52.6174 243.233 52.6174ZM239.442 48.1486V49.1218H238.679V49.653H239.442V52.1455C239.442 52.3065 239.407 52.4277 239.339 52.5095C239.271 52.5887 239.156 52.6285 238.992 52.6285C238.912 52.6285 238.801 52.6136 238.66 52.5838V53.141C238.844 53.1906 239.022 53.2154 239.196 53.2154C239.508 53.2154 239.744 53.1224 239.902 52.9367C240.061 52.7511 240.14 52.4872 240.14 52.1455V49.653H240.884V49.1218H240.14V48.1486H239.442ZM237.1 53.141H237.799V49.1218H237.1V53.141ZM237.855 48.0556C237.855 47.9443 237.821 47.8501 237.753 47.7733C237.683 47.6964 237.58 47.6582 237.444 47.6582C237.307 47.6582 237.204 47.6964 237.134 47.7733C237.063 47.8501 237.028 47.9443 237.028 48.0556C237.028 48.167 237.063 48.2599 237.134 48.3343C237.204 48.4084 237.307 48.4457 237.444 48.4457C237.58 48.4457 237.683 48.4084 237.753 48.3343C237.821 48.2599 237.855 48.167 237.855 48.0556ZM234.63 52.2087L233.618 49.1218H232.904L234.369 53.141H234.902L236.382 49.1218H235.668L234.63 52.2087ZM230.588 53.2154C231.142 53.2154 231.593 53.0371 231.941 52.6804C232.288 52.3213 232.462 51.8421 232.462 51.2429V51.1165C232.462 50.7179 232.385 50.3625 232.231 50.0505C232.075 49.7358 231.859 49.4907 231.582 49.315C231.302 49.1366 231 49.0474 230.675 49.0474C230.144 49.0474 229.731 49.2195 229.436 49.5637C229.142 49.908 228.995 50.4008 228.995 51.0421V51.3282H231.763C231.753 51.7246 231.636 52.0453 231.412 52.2905C231.185 52.533 230.898 52.6545 230.551 52.6545C230.304 52.6545 230.095 52.6049 229.924 52.5059C229.753 52.4068 229.603 52.2756 229.474 52.1121L229.047 52.439C229.39 52.9565 229.904 53.2154 230.588 53.2154V53.2154ZM230.675 49.6121C230.957 49.6121 231.194 49.7136 231.385 49.9166C231.577 50.1174 231.695 50.3996 231.74 50.7636H229.693V50.7117C229.713 50.3625 229.809 50.0925 229.98 49.9017C230.152 49.7087 230.383 49.6121 230.675 49.6121V49.6121Z" fill="#61DAFB"/>
</g>
<g clip-path="url(#clip2_399_194)">
<path d="M309.01 100.302C309.608 99.9627 310.387 99.9611 310.985 100.302C313.991 101.985 316.999 103.665 320.005 105.349C320.571 105.664 320.949 106.288 320.943 106.933V117.058C320.947 117.73 320.532 118.368 319.935 118.677C316.938 120.35 313.943 122.026 310.947 123.7C310.336 124.045 309.542 124.019 308.95 123.645C308.052 123.129 307.152 122.615 306.253 122.1C306.069 121.991 305.863 121.905 305.733 121.729C305.847 121.576 306.052 121.557 306.219 121.49C306.594 121.372 306.938 121.182 307.283 120.998C307.37 120.939 307.476 120.962 307.56 121.015C308.328 121.451 309.09 121.9 309.861 122.332C310.025 122.426 310.192 122.301 310.332 122.224C313.273 120.577 316.217 118.937 319.158 117.29C319.267 117.238 319.327 117.124 319.318 117.006C319.32 113.666 319.319 110.325 319.319 106.985C319.331 106.851 319.253 106.728 319.131 106.673C316.144 105.007 313.159 103.338 310.173 101.672C310.122 101.637 310.06 101.618 309.998 101.618C309.935 101.617 309.873 101.636 309.822 101.671C306.836 103.338 303.851 105.008 300.865 106.674C300.743 106.729 300.662 106.85 300.676 106.985C300.677 110.325 300.676 113.666 300.676 117.006C300.671 117.064 300.684 117.122 300.713 117.172C300.742 117.222 300.786 117.262 300.838 117.287C301.635 117.735 302.433 118.179 303.23 118.625C303.68 118.865 304.231 119.007 304.726 118.824C305.163 118.668 305.469 118.227 305.461 117.768C305.465 114.447 305.458 111.126 305.464 107.806C305.453 107.659 305.594 107.537 305.739 107.551C306.121 107.548 306.505 107.546 306.888 107.552C307.047 107.548 307.157 107.707 307.138 107.855C307.136 111.197 307.142 114.539 307.135 117.88C307.136 118.771 306.767 119.74 305.935 120.175C304.911 120.701 303.644 120.59 302.632 120.086C301.756 119.652 300.92 119.141 300.059 118.677C299.461 118.37 299.048 117.73 299.052 117.058V106.933C299.046 106.274 299.439 105.64 300.022 105.329C303.018 103.654 306.014 101.978 309.01 100.302Z" fill="#8CC84B"/>
<path d="M311.623 107.314C312.93 107.231 314.329 107.265 315.505 107.903C316.416 108.391 316.92 109.417 316.936 110.419C316.911 110.554 316.768 110.629 316.638 110.619C316.259 110.619 315.88 110.624 315.501 110.617C315.34 110.623 315.246 110.476 315.226 110.335C315.117 109.856 314.853 109.381 314.398 109.15C313.698 108.803 312.888 108.82 312.125 108.828C311.568 108.857 310.97 108.905 310.498 109.229C310.136 109.474 310.026 109.97 310.155 110.37C310.277 110.656 310.611 110.749 310.885 110.834C312.46 111.242 314.128 111.201 315.673 111.738C316.313 111.957 316.939 112.383 317.157 113.046C317.444 113.935 317.318 114.998 316.68 115.712C316.162 116.299 315.408 116.619 314.656 116.792C313.655 117.013 312.616 117.019 311.6 116.921C310.644 116.813 309.65 116.564 308.912 115.919C308.282 115.377 307.973 114.531 308.004 113.715C308.011 113.577 308.15 113.481 308.283 113.493C308.665 113.49 309.047 113.489 309.429 113.493C309.581 113.482 309.694 113.613 309.702 113.755C309.772 114.212 309.946 114.692 310.348 114.962C311.124 115.458 312.098 115.424 312.986 115.438C313.722 115.406 314.549 115.396 315.149 114.914C315.466 114.639 315.56 114.179 315.475 113.784C315.382 113.45 315.029 113.294 314.726 113.192C313.171 112.705 311.484 112.882 309.944 112.331C309.319 112.112 308.715 111.698 308.475 111.062C308.139 110.162 308.293 109.048 308.998 108.359C309.686 107.673 310.679 107.409 311.623 107.314V107.314Z" fill="#8CC84B"/>
</g>
</g>
<g clip-path="url(#clip3_399_194)">
<path d="M84.1475 4.15625L85.2375 6.20625C85.4748 6.57604 85.751 6.91933 86.0615 7.23025C86.9745 8.14325 87.8435 9.10025 88.6215 10.1253C90.4695 12.5523 91.7165 15.2473 92.6075 18.1653C93.1415 19.9473 93.4315 21.7733 93.4535 23.6213C93.5435 29.1442 91.6495 33.8873 87.8195 37.8293C87.1989 38.4541 86.5287 39.0277 85.8155 39.5443C85.4355 39.5443 85.2585 39.2443 85.1025 38.9873C84.8025 38.4873 84.6345 37.9403 84.5455 37.3843C84.4115 36.7163 84.3225 36.0483 84.3675 35.3573V35.0452C84.3455 34.9782 84.0115 4.31325 84.1445 4.15725L84.1475 4.15625Z" fill="#599636"/>
<path d="M84.147 4.09114C84.102 4.00114 84.057 4.06914 84.013 4.11314C84.035 4.55814 83.879 4.95914 83.633 5.33814C83.366 5.71814 83.009 6.00614 82.653 6.31814C80.671 8.03314 79.113 10.1041 77.865 12.4201C76.217 15.5381 75.349 18.8781 75.105 22.3971C74.995 23.6671 75.505 28.1431 75.907 29.4341C76.997 32.8641 78.957 35.7361 81.507 38.2301C82.131 38.8301 82.799 39.3881 83.489 39.9221C83.689 39.9221 83.712 39.7441 83.756 39.6101C83.8438 39.3257 83.9106 39.0353 83.956 38.7411C84.156 37.6281 84.268 36.5141 84.401 35.4011L84.156 4.09114H84.147Z" fill="#6CAC48"/>
<path d="M85.2404 40.8994C85.2854 40.3874 85.5404 39.9644 85.7974 39.5414C85.5304 39.4314 85.3294 39.2074 85.1734 38.9614C85.0394 38.7384 84.9284 38.4614 84.8394 38.2264C84.5274 37.2914 84.4594 36.3114 84.3714 35.3534V34.7734C84.2614 34.8634 84.2374 35.6194 84.2374 35.7314C84.1704 36.7554 84.0374 37.7584 83.8374 38.7374C83.7704 39.1374 83.7274 39.5394 83.4814 39.8954C83.4814 39.9404 83.4814 39.9854 83.5034 40.0514C83.9034 41.2314 84.0154 42.4344 84.0834 43.6594V44.1044C84.0834 44.6384 84.0614 44.5274 84.5064 44.7044C84.6844 44.7714 84.8864 44.7944 85.0634 44.9274C85.1974 44.9274 85.2194 44.8174 85.2194 44.7274L85.1524 43.9924V41.9424C85.1304 41.5864 85.1974 41.2294 85.2424 40.8954L85.2404 40.8994Z" fill="#C2BFBF"/>
</g>
<defs>
<radialGradient id="paint0_radial_399_194" cx="0" cy="0" r="1" gradientUnits="userSpaceOnUse" gradientTransform="translate(247.78 112.596) scale(12.93 12.93)">
<stop stop-color="#FFC8AF"/>
<stop offset="1" stop-color="#FFBB9C"/>
</radialGradient>
<radialGradient id="paint1_radial_399_194" cx="0" cy="0" r="1" gradientUnits="userSpaceOnUse" gradientTransform="translate(240.291 89.2036) rotate(-12.15) scale(20.38 20.38)">
<stop stop-color="#FFC8AF"/>
<stop offset="1" stop-color="#FFBB9C"/>
</radialGradient>
<radialGradient id="paint2_radial_399_194" cx="0" cy="0" r="1" gradientUnits="userSpaceOnUse" gradientTransform="translate(220.221 307.773) scale(8.13 8.13)">
<stop stop-color="#FFC8AF"/>
<stop offset="1" stop-color="#FFBB9C"/>
</radialGradient>
<radialGradient id="paint3_radial_399_194" cx="0" cy="0" r="1" gradientUnits="userSpaceOnUse" gradientTransform="translate(168.75 309.81) scale(7.4 7.39999)">
<stop stop-color="#FFC8AF"/>
<stop offset="1" stop-color="#FFBB9C"/>
</radialGradient>
<radialGradient id="paint4_radial_399_194" cx="0" cy="0" r="1" gradientUnits="userSpaceOnUse" gradientTransform="translate(213.82 170.917) scale(41.44 41.44)">
<stop stop-color="#FFC8AF"/>
<stop offset="1" stop-color="#FFBB9C"/>
</radialGradient>
<radialGradient id="paint5_radial_399_194" cx="0" cy="0" r="1" gradientUnits="userSpaceOnUse" gradientTransform="translate(213.82 170.922) scale(41.44)">
<stop stop-color="#FFC8AF"/>
<stop offset="1" stop-color="#FFBB9C"/>
</radialGradient>
<linearGradient id="paint6_linear_399_194" x1="354.106" y1="218.966" x2="354.118" y2="282.273" gradientUnits="userSpaceOnUse">
<stop stop-color="#606BF1"/>
<stop offset="1" stop-color="#58479F"/>
</linearGradient>
<linearGradient id="paint7_linear_399_194" x1="303.923" y1="224.144" x2="330.639" y2="281.529" gradientUnits="userSpaceOnUse">
<stop stop-color="#606BF1"/>
<stop offset="1" stop-color="#58479F"/>
</linearGradient>
<linearGradient id="paint8_linear_399_194" x1="324.809" y1="205.34" x2="344.016" y2="281.289" gradientUnits="userSpaceOnUse">
<stop stop-color="#606BF1"/>
<stop offset="1" stop-color="#58479F"/>
</linearGradient>
<clipPath id="clip0_399_194">
<rect width="431.92" height="352" fill="white"/>
</clipPath>
<clipPath id="clip1_399_194">
<rect width="44" height="43" fill="white" transform="matrix(-1 0 0 1 273 3)"/>
</clipPath>
<clipPath id="clip2_399_194">
<rect width="22" height="24" fill="white" transform="translate(299 100)"/>
</clipPath>
<clipPath id="clip3_399_194">
<rect width="31" height="35.9882" fill="white" transform="translate(68 3.50781)"/>
</clipPath>
</defs>
</svg>
